<svg xmlns="http://www.w3.org/2000/svg" width="64" height="64" viewBox="0 0 64 64">
    <g id="link-tiktok-light" transform="translate(-4058 410)">
        <rect id="Rectangle_124" width="64" height="64" transform="translate(4058 -410)" fill="none"/>
        <path id="icons8-tiktok" d="M34.667,19.138c-.244.023-.489.038-.737.038a8.007,8.007,0,0,1-6.7-3.621V27.887a9.114,9.114,0,1,1-9.114-9.116c.191,0,.377.017.562.028v4.492a4.646,4.646,0,0,0-.562-.056,4.652,4.652,0,1,0,0,9.3,4.766,4.766,0,0,0,4.839-4.594C22.954,27.842,23,7,23,7h4.292a8,8,0,0,0,7.376,7.146Z" transform="translate(4068.167 -400.001)" fill="#e6e6e6"/>
    </g>
</svg>
