<svg xmlns="http://www.w3.org/2000/svg" width="64" height="64" viewBox="0 0 64 64">
  <g id="link-spotify-dark" transform="translate(-4158 520)">
    <rect id="Rectangle_122" data-name="Rectangle 122" width="64" height="64" transform="translate(4158 -520)" fill="none"/>
    <path id="_082-spotify" data-name="082-spotify" d="M12,24A12,12,0,1,0,0,12,12,12,0,0,0,12,24Zm4.872-6.344h0c-.807,0-3.356-2.828-10.52-1.36a3.089,3.089,0,0,1-.576.126.8.8,0,0,1-.106-1.578c3.963-.875,8.013-.8,11.467,1.268a.805.805,0,0,1-.265,1.543Zm1.3-3.173c-.113-.03-.08.069-.6-.2A15.681,15.681,0,0,0,6.033,12.857a1.988,1.988,0,0,1-.576.126.984.984,0,0,1-.188-1.94,17.53,17.53,0,0,1,13.3,1.543,1.009,1.009,0,0,1,.547.953A.938.938,0,0,1,18.175,14.483ZM4.548,7c4.523-1.324,11.368-.906,15.624,1.578a1.177,1.177,0,0,1-.5,2.22h0a1.114,1.114,0,0,1-.625-.189C15.605,8.55,9.444,8.057,5.458,9.17a2.329,2.329,0,0,1-.625.125A1.117,1.117,0,0,1,3.706,8.153,1.143,1.143,0,0,1,4.548,7Z" transform="translate(4178 -500)" fill="#e6e6e6"/>
  </g>
</svg>
