<svg xmlns="http://www.w3.org/2000/svg" width="64" height="64" viewBox="0 0 64 64">
    <g id="ICON_Teams" transform="translate(-280 -269)">
        <rect id="Rectangle_52" width="64" height="64" transform="translate(280 269)" fill="none"/>
        <g id="microsoft-teams" transform="translate(300 289.135)">
            <g id="Group_2">
                <path id="Path_83" d="M20.314,9.062a2.146,2.146,0,1,0-.462-.684,2.192,2.192,0,0,0,.462.684Zm-.629,1.994v6.471h1.078a6.137,6.137,0,0,0,1.1-.1,3.44,3.44,0,0,0,1.045-.365,2.331,2.331,0,0,0,.779-.687A1.782,1.782,0,0,0,24,15.3V11.056Zm-3.5-2.713a2.086,2.086,0,0,0,.834-.168,2.151,2.151,0,0,0,0-3.963,2.088,2.088,0,0,0-.835-.168,2.059,2.059,0,0,0-.829.168c-.2.084-.257.192-.526.324V7.851c.27.132.331.24.526.324a2.056,2.056,0,0,0,.832.168Zm-1.359,10.9c.27.058.367.1.558.13a4.588,4.588,0,0,0,.633.046,4.781,4.781,0,0,0,.973-.1,2.873,2.873,0,0,0,.922-.36,2.117,2.117,0,0,0,.687-.682,1.962,1.962,0,0,0,.271-1.072V9.707H14.831v9.531ZM0,21.3,14.022,23.73V0L0,2.427Z" fill="#e6e6e6"/>
            </g>
            <path id="Path_84" d="M381.071,722.4l-6.471.394v1.493l2.427-.1v6.921l1.618.095v-7.079l2.427-.108Z" transform="translate(-370.825 -715.119)" fill="#262626"/>
        </g>
    </g>
</svg>
