<svg xmlns="http://www.w3.org/2000/svg" width="64" height="64" viewBox="0 0 64 64">
    <g id="link-behance" transform="translate(-62 -272)">
        <rect id="Rectangle_60" width="64" height="64" transform="translate(62 272)" fill="none"/>
        <path id="Path_88" data-name="Path 88" d="M16.487,18.432a4.733,4.733,0,0,0-3.594-4.969,4.2,4.2,0,0,0,2.688-4.1c0-3.91-2.923-4.864-6.3-4.864H0V24.131H9.546c3.579,0,6.941-1.711,6.941-5.7ZM4.329,7.851H8.391c1.562,0,2.967.437,2.967,2.243,0,1.667-1.094,2.338-2.64,2.338H4.329Zm0,12.946V15.391H9.046c1.906,0,3.111.792,3.111,2.8,0,1.983-1.439,2.6-3.2,2.6Z" transform="translate(78 289.5)" fill="#e6e6e6"/>
        <path id="Path_89" data-name="Path 89" d="M20.621,23.249c3.406,0,5.612-1.53,6.673-4.781H23.838a3.244,3.244,0,0,1-3.1,1.855c-2.3,0-3.5-1.34-3.5-3.618H27.528c.325-4.558-2.214-8.443-6.908-8.443a7.153,7.153,0,0,0-7.3,7.523C13.324,20.212,16.119,23.249,20.621,23.249ZM20.5,11.212c1.967,0,2.957,1.152,3.122,3.037H17.247A3.058,3.058,0,0,1,20.5,11.212Z" transform="translate(82.444 290.755)" fill="#e6e6e6"/>
        <path id="Path_90" data-name="Path 90" d="M15.667,5.273h7.985V7.207H15.667Z" transform="translate(83.226 289.758)" fill="#e6e6e6"/>
    </g>
</svg>
