<svg xmlns="http://www.w3.org/2000/svg" width="64" height="64" viewBox="0 0 64 64">
    <g id="ICON_Youtube" transform="translate(-280 -269)">
        <rect id="Rectangle_52" width="64" height="64" transform="translate(280 269)" fill="none"/>
        <path id="_116-youtube" d="M27.38,6.334l.035.229A3.55,3.55,0,0,0,25,4.1l-.024-.006C22.8,3.5,14.012,3.5,14.012,3.5S5.25,3.488,3.045,4.093A3.551,3.551,0,0,0,.615,6.538l-.006.024A39.029,39.029,0,0,0,.645,20.5l-.036-.231a3.55,3.55,0,0,0,2.413,2.464l.024.006c2.18.594,10.967.594,10.967.594s8.76,0,10.967-.594a3.551,3.551,0,0,0,2.431-2.445l.006-.024A36.476,36.476,0,0,0,28,13.68c0-.085,0-.171,0-.258s0-.174,0-.268a37.631,37.631,0,0,0-.619-6.82ZM11.209,17.676V9.168l7.31,4.261Z" transform="translate(298 287.5)" fill="#e6e6e6"/>
    </g>
</svg>
