<svg xmlns="http://www.w3.org/2000/svg" width="64" height="64" viewBox="0 0 64 64">
    <g id="ICON_Quora" transform="translate(-280 -269)">
        <rect id="Rectangle_52" width="64" height="64" transform="translate(280 269)" fill="none"/>
        <path id="_071-quora" d="M17.516,20.01a10.871,10.871,0,0,0,4.984-9.2A10.661,10.661,0,0,0,12,0,10.66,10.66,0,0,0,1.5,10.812,10.658,10.658,0,0,0,12,21.624a10.218,10.218,0,0,0,2.475-.305c.995,1.841,2.516,3.145,5.738,2.523V22.007A4.391,4.391,0,0,1,17.516,20.01Zm-.073-7.767A7.71,7.71,0,0,1,15.957,16.9,6.582,6.582,0,0,0,10.7,14.752v2.125A3.464,3.464,0,0,1,13.322,18.8a4.3,4.3,0,0,1-1.243.184c-2.962,0-5.361-3.019-5.361-6.744V9.458c0-3.726,2.4-6.745,5.361-6.745s5.364,3.02,5.364,6.745Z" transform="translate(299.5 289)" fill="#e6e6e6"/>
    </g>
</svg>
