<svg xmlns="http://www.w3.org/2000/svg" width="64" height="64" viewBox="0 0 64 64">
    <g id="icon-upwork" transform="translate(16 15.999)">
        <circle id="Ellipse_14" cx="32" cy="32" r="32" transform="translate(-16 -15.999)" fill="none"/>
        <path id="Path_100" data-name="Path 100" d="M28.027,38.232A7.365,7.365,0,0,1,23.41,36.39l.343-1.611.015-.06c.306-1.715,1.275-4.594,4.259-4.594a4.053,4.053,0,1,1,0,8.107Zm0-12.216c-3.811,0-6.764,2.476-7.965,6.548a33.543,33.543,0,0,1-4.035-8.838h-4.1V34.4a3.818,3.818,0,0,1-7.637,0V23.726H.186V34.4a7.921,7.921,0,1,0,15.841,0v-1.79a25.549,25.549,0,0,0,2.961,4.833L16.474,49.255h4.2l1.82-8.569a10.1,10.1,0,0,0,5.534,1.663,8.167,8.167,0,0,0,0-16.333Z" transform="translate(-2.186 -18.071)" fill="#e6e6e6"/>
    </g>
</svg>
