<svg xmlns="http://www.w3.org/2000/svg" width="64" height="64" viewBox="0 0 64 64">
    <g id="icon-fiverr" transform="translate(125 114)">
        <circle id="Ellipse_15" cx="32" cy="32" r="32" transform="translate(-125 -114)" fill="none"/>
        <g id="Fiverr_New" data-name="Fiverr New" transform="translate(-227.27 -293.97)">
            <g id="fiverr_logo_nav" transform="translate(108.27 202.97)">
                <path id="Path_98" data-name="Path 98" d="M155.946,210.624h-1.812c-1.169,0-1.812.876-1.812,2.4v5.434h-3.506v-7.829h-1.461c-1.169,0-1.812.876-1.812,2.4v5.434h-3.506V207.7h3.506v1.636a2.4,2.4,0,0,1,2.512-1.636h4.265v1.636a2.4,2.4,0,0,1,2.512-1.636H156ZM141.222,213.9h-7.245a1.988,1.988,0,0,0,2.162,1.87,1.768,1.768,0,0,0,1.812-1.052l3.1.876a5.045,5.045,0,0,1-4.908,2.98,5.383,5.383,0,0,1-5.55-5.55c0-2.512,1.519-5.492,5.317-5.492a5.067,5.067,0,0,1,5.376,5.317A4.825,4.825,0,0,1,141.222,213.9Zm-3.33-2.045a1.84,1.84,0,0,0-1.928-1.753,1.8,1.8,0,0,0-1.986,1.753Zm-13.38,6.6h3.038l3.856-10.692h-3.5l-1.87,6.252-1.87-6.31h-3.506Zm-14.256,0H113.7v-7.829h3.33v7.829h3.447V207.7H113.7v-.643a1.17,1.17,0,0,1,1.285-1.169h2.045V202.97h-2.571c-2.512,0-4.207,1.578-4.207,3.856v.876H108.27v2.921h1.986Z" transform="translate(-108.27 -202.97)" fill="#e6e6e6"/>
            </g>
            <g id="fiverr_logo_nav_dot" transform="translate(155.947 214.423)">
                <path id="Path_99" data-name="Path 99" d="M683.9,345.053a2.162,2.162,0,1,0-2.162-2.162A2.195,2.195,0,0,0,683.9,345.053Z" transform="translate(-681.74 -340.73)" fill="#e6e6e6"/>
            </g>
        </g>
    </g>
</svg>
