<svg xmlns="http://www.w3.org/2000/svg" width="64" height="64" viewBox="0 0 64 64">
    <g id="ICON_Snapchat" transform="translate(-280 -269)">
        <rect id="Rectangle_52" width="64" height="64" transform="translate(280 269)" fill="none"/>
        <path id="_080-snapchat" d="M24.244,22.843c1.064-.167,3.266-.552,3.687-1.521a.665.665,0,0,0-.478-.967h0c-3.743-.616-5.43-4.45-5.5-4.613-1.037-1.86,1.778-1.547,2.885-2.681,1.08-1.112-.652-2.316-1.736-1.8a2.105,2.105,0,0,1-1.554.249c.105-1.761.4-4.68-.317-6.274C18.834-.142,11.763-.335,8.477,2.782,5.888,5.237,6.206,7.761,6.449,11.5c-.805.351-1.6-.347-2.181-.347a1.454,1.454,0,0,0-1.432.992c-.145.783.706,1.287,1.442,1.577,1.254.492,2.447.638,1.785,1.982a.186.186,0,0,0-.014.032,7.786,7.786,0,0,1-5.5,4.612.67.67,0,0,0-.481.967v0c.417.971,2.639,1.359,3.688,1.523.324.607.076,1.8,1.08,1.8a21.006,21.006,0,0,1,2.112-.256,4.227,4.227,0,0,1,3.013,1.1,6.187,6.187,0,0,0,8.079,0v0a4.69,4.69,0,0,1,4.48-.944c1.832.355,1.3-.886,1.722-1.708Z" transform="translate(298 286.917)" fill="#e6e6e6"/>
    </g>
</svg>
