<?xml version="1.0" encoding="utf-8"?>
<!-- Generator: Adobe Illustrator 26.0.0, SVG Export Plug-In . SVG Version: 6.00 Build 0)  -->
<svg version="1.1" id="Layer_1" xmlns="http://www.w3.org/2000/svg" xmlns:xlink="http://www.w3.org/1999/xlink" x="0px" y="0px"
	 viewBox="0 0 32 32" style="enable-background:new 0 0 32 32;" xml:space="preserve">
<style type="text/css">
	.st0{fill:#19C600;}
</style>
<g>
	<g id="_x32_41_x2C__Call_x2C__Ring_x2C__Hospital_x2C__Phone_x2C__Delete">
		<g>
			<path class="st0" d="M17.3,20.1c-0.1,0.1-0.2,0.1-0.3,0l-5.8-5.8c-0.1-0.1-0.1-0.2,0-0.3l1.9-1.9L12.9,12L9.3,8.4l0,0
				C8.4,9.3,8,9.9,7.8,11.1c-0.3,2.7,0.8,5.1,4.2,8.4c3.7,3.7,6.7,4.1,7.8,4.1c0.3,0,0.4,0,0.5,0l0,0c1.2-0.1,1.8-0.6,2.7-1.5l0,0
				l-3.9-3.9L17.3,20.1z"/>
			<path class="st0" d="M18.5,13v1.4h1.2V13c0-0.1,0.1-0.2,0.2-0.2h1.4v-1.2h-1.4c-0.1,0-0.2-0.1-0.2-0.2V10h-1.2v1.4
				c0,0.1-0.1,0.2-0.2,0.2h-1.4v1.2h1.4C18.4,12.8,18.5,12.9,18.5,13z"/>
			<path class="st0" d="M13.3,11.9L13.3,11.9C14,11.2,14,10,13.4,9.4L12.1,8c-0.3-0.3-0.8-0.5-1.3-0.5C10.4,7.5,10,7.7,9.6,8v0.1
				l1.9,1.9L13.3,11.9z"/>
			<path class="st0" d="M23.4,19.2L22,17.9c-0.3-0.3-0.8-0.5-1.2-0.5s-0.9,0.2-1.2,0.5L19.5,18l3.9,3.9l0.1-0.1
				C24,21,24,20,23.4,19.2z"/>
		</g>
	</g>
	<g id="Layer_1_00000004544290185993268920000013990769822246636974_">
	</g>
</g>
</svg>
