<?xml version="1.0" encoding="utf-8"?>
<!-- Generator: Adobe Illustrator 26.0.0, SVG Export Plug-In . SVG Version: 6.00 Build 0)  -->
<svg version="1.1" xmlns="http://www.w3.org/2000/svg" xmlns:xlink="http://www.w3.org/1999/xlink" x="0px" y="0px"
	 viewBox="0 0 32 32" style="enable-background:new 0 0 32 32;" xml:space="preserve">
<style type="text/css">
	.st0{fill:#FF0000;}
</style>
<g id="Layer_1">
</g>
<g id="Layer_2">
	<g>
		<path class="st0" d="M16,10.7c-1.4,0-2.5,1.1-2.5,2.5c0,1.4,1.1,2.5,2.5,2.5c1.4,0,2.5-1.1,2.5-2.5C18.5,11.8,17.4,10.7,16,10.7z"
			/>
		<path class="st0" d="M16,5.2c-4.6,0-8.3,3.7-8.3,8.3c0,3.9,6.1,11,7.9,13c0.3,0.3,0.7,0.3,1,0c1.8-2,7.9-9.1,7.9-13
			C24.3,8.9,20.6,5.2,16,5.2z M16,17.3c-2.3,0-4.1-1.9-4.1-4.1c0-2.3,1.9-4.1,4.1-4.1c2.3,0,4.1,1.9,4.1,4.1
			C20.1,15.4,18.3,17.3,16,17.3z"/>
	</g>
</g>
</svg>
