<?xml version="1.0" encoding="utf-8"?>
<!-- Generator: Adobe Illustrator 26.0.0, SVG Export Plug-In . SVG Version: 6.00 Build 0)  -->
<svg version="1.1" id="Layer_3" xmlns="http://www.w3.org/2000/svg" xmlns:xlink="http://www.w3.org/1999/xlink" x="0px" y="0px"
	 viewBox="0 0 32 32" style="enable-background:new 0 0 32 32;" xml:space="preserve">
<style type="text/css">
	.st0{fill:#FFFFFF;}
</style>
<g>
	<path class="st0" d="M7.2,8.3l7.2,8.1c0.4,0.5,1,0.7,1.6,0.7c0.6,0,1.2-0.3,1.6-0.7l7-8c0.1-0.1,0.1-0.1,0.2-0.2
		c-0.3-0.1-0.6-0.2-1-0.2H8.1C7.8,8.1,7.5,8.1,7.2,8.3C7.2,8.3,7.2,8.3,7.2,8.3z"/>
	<path class="st0" d="M25.9,9.2c0,0.1-0.1,0.2-0.1,0.2l-7,8c-0.7,0.8-1.7,1.2-2.8,1.2c-1.1,0-2.1-0.5-2.8-1.2L6.1,9.3c0,0,0,0,0-0.1
		C5.8,9.6,5.7,10,5.7,10.5v11c0,1.3,1.1,2.4,2.4,2.4h15.8c1.3,0,2.4-1.1,2.4-2.4v-11C26.3,10,26.2,9.6,25.9,9.2z"/>
</g>
</svg>
