<?xml version="1.0" encoding="utf-8"?>
<!-- Generator: Adobe Illustrator 26.0.0, SVG Export Plug-In . SVG Version: 6.00 Build 0)  -->
<svg version="1.1" id="Layer_1" xmlns="http://www.w3.org/2000/svg" xmlns:xlink="http://www.w3.org/1999/xlink" x="0px" y="0px"
	 viewBox="0 0 32 32" style="enable-background:new 0 0 32 32;" xml:space="preserve">
<style type="text/css">
	.st0{fill:#00D954;}
	.st1{fill-rule:evenodd;clip-rule:evenodd;fill:#00D954;}
</style>
<g>
	<path class="st0" d="M5.9,26.1l1.5-5.4c-0.8-1.5-1.3-3.1-1.3-4.8c0-5.5,4.5-10,10-10c5.5,0,10,4.5,10,10c0,5.5-4.5,10-10,10
		c-1.7,0-3.3-0.4-4.8-1.2L5.9,26.1z M11.6,22.6l0.3,0.2c1.3,0.8,2.7,1.1,4.1,1.1c4.5,0,8.1-3.6,8.1-8.1c0-4.5-3.6-8.1-8.1-8.1
		c-4.5,0-8.1,3.6-8.1,8.1c0,1.5,0.4,2.9,1.2,4.2l0.2,0.3l-0.8,3L11.6,22.6z"/>
	<path class="st1" d="M19.8,17.3c-0.4-0.2-0.9-0.5-1.4-0.3c-0.4,0.2-0.6,0.7-0.9,1c-0.1,0.2-0.3,0.2-0.5,0.1
		c-1.4-0.6-2.5-1.5-3.2-2.8c-0.1-0.2-0.1-0.4,0.1-0.5c0.2-0.3,0.5-0.6,0.6-1c0.1-0.4-0.1-0.8-0.3-1.1c-0.2-0.4-0.4-1-0.8-1.3
		c-0.4-0.2-0.9-0.1-1.2,0.2c-0.6,0.5-0.9,1.2-0.9,2c0,0.2,0,0.4,0.1,0.6c0.1,0.5,0.3,1,0.6,1.4c0.2,0.3,0.4,0.7,0.6,1
		c0.7,1,1.7,1.9,2.8,2.6c0.5,0.3,1.1,0.6,1.7,0.8c0.7,0.2,1.3,0.5,2,0.3c0.8-0.1,1.5-0.6,1.8-1.3c0.1-0.2,0.1-0.5,0.1-0.7
		C20.8,17.8,20.2,17.5,19.8,17.3z"/>
</g>
</svg>
