<svg xmlns="http://www.w3.org/2000/svg" xmlns:xlink="http://www.w3.org/1999/xlink" viewBox="0 0 4072.5 2481.84"><defs><style>.cls-1{opacity:0.39;}.cls-2,.cls-3,.cls-4,.cls-7{fill:#fff;}.cls-13,.cls-3,.cls-8{fill-rule:evenodd;}.cls-4,.cls-9{font-size:144.07px;font-family:Spantaran;}.cls-10,.cls-5{letter-spacing:0.03em;}.cls-11,.cls-6{letter-spacing:0em;}.cls-12,.cls-7{font-size:42.86px;font-family:Poppins-Regular, Poppins;letter-spacing:0.42em;}.cls-8{fill:url(#linear-gradient);}.cls-14,.cls-9{fill:#253b80;}.cls-10,.cls-11,.cls-15{fill:#179bd7;}.cls-12,.cls-16{fill:#232223;}.cls-13{fill:url(#linear-gradient-2);}.cls-17{fill:none;stroke-miterlimit:10;stroke-width:7px;stroke:url(#linear-gradient-3);}</style><linearGradient id="linear-gradient" x1="541.11" y1="-428.16" x2="541.11" y2="-669.57" gradientUnits="userSpaceOnUse"><stop offset="0" stop-color="#253b80"/><stop offset="1" stop-color="#179bd7"/></linearGradient><linearGradient id="linear-gradient-2" x1="1510.99" y1="1105.02" x2="1510.99" y2="863.61" xlink:href="#linear-gradient"/><linearGradient id="linear-gradient-3" x1="1396.39" y1="1783.33" x2="2369.16" y2="1783.33" xlink:href="#linear-gradient"/></defs><g id="OBJECTS"><path class="cls-1" d="M3598.68.21H3961.1a111.4,111.4,0,0,1,111.4,111.4V474.16a0,0,0,0,1,0,0H3710.09a111.4,111.4,0,0,1-111.4-111.4V.21A0,0,0,0,1,3598.68.21Z"/><path class="cls-2" d="M4095.1-1018.38c-11,.26-22,0-33,0h-6.6v7.37q0,83,0,166c0,10.07-2,19.66-7.46,28.05a32,32,0,0,1-23.86,14.53c-7,.8-14.24.15-22.15.15h0v-10.49q0-36.63,0-73.25t.08-73.25a9.41,9.41,0,0,0-.08-1.33v-57.84h-32v0c-13,0-25.95,0-38.92.17-5.26.09-6.5-1.61-6.21-6.56,1.36-22.81,15.83-39.53,38.75-38.67,9.65.37,19.33,0,29,0l135,0c1.47,0,2.95.13,4.39.19C4134-1040.51,4121.33-1019,4095.1-1018.38Z" transform="translate(-186.16 1171.33)"/><path class="cls-1" d="M3598.39,0h87A38.6,38.6,0,0,1,3724,38.6v87.08a0,0,0,0,1,0,0h-87a38.6,38.6,0,0,1-38.6-38.6V0A0,0,0,0,1,3598.39,0Z"/><path class="cls-1" d="M3621.15,22.76h61.76a18.38,18.38,0,0,1,18.38,18.38v61.78a0,0,0,0,1,0,0h-61.76a18.38,18.38,0,0,1-18.38-18.38V22.76A0,0,0,0,1,3621.15,22.76Z"/><path class="cls-3" d="M592.71,353.34v-60h50a14.14,14.14,0,0,1,14.13,14.14v31.73a14.13,14.13,0,0,1-14.13,14.13Zm0,114.09h50a14.14,14.14,0,0,0,14.13-14.14V421.56a14.13,14.13,0,0,0-14.13-14.13h-50v60ZM479.85,351.51H544v-60H494a14.13,14.13,0,0,0-14.13,14.13v45.87Zm-1.07,182c0,53.39,13.65,67.23,64.17,67.23h66.47V533.53H543V405H479.64V347.94h-50a14.14,14.14,0,0,0-14.13,14.14v31.73a14.13,14.13,0,0,0,14.13,14.13h49.18V533.53Z" transform="translate(-186.16 1171.33)"/><text class="cls-4" transform="translate(0 1891.15)">Tech<tspan class="cls-5" x="336.33" y="0">V</tspan><tspan class="cls-6" x="425.32" y="0">ibes</tspan></text><text class="cls-7" transform="translate(26.52 1935.3)">Your Tech Partner</text><path class="cls-8" d="M597.64-633.68v-60h50a14.13,14.13,0,0,1,14.13,14.13v31.73a14.13,14.13,0,0,1-14.13,14.13Zm0,114.09h50a14.13,14.13,0,0,0,14.13-14.13v-31.74a14.13,14.13,0,0,0-14.13-14.13h-50v60ZM484.78-635.51H549v-60h-50a14.14,14.14,0,0,0-14.13,14.14v45.86Zm-1.07,182c0,53.4,13.65,67.23,64.17,67.23h66.47v-67.23H547.88V-582H484.57v-57h-50a14.13,14.13,0,0,0-14.13,14.13v31.73a14.13,14.13,0,0,0,14.13,14.13h49.18v125.59Z" transform="translate(-186.16 1171.33)"/><text class="cls-9" transform="translate(4.93 904.13)">Tech<tspan class="cls-10" x="336.33" y="0">V</tspan><tspan class="cls-11" x="425.32" y="0">ibes</tspan></text><text class="cls-12" transform="translate(31.45 948.28)">Your Tech Partner</text><path class="cls-13" d="M1567.52,899.5v-60h50a14.13,14.13,0,0,1,14.13,14.14v31.73a14.13,14.13,0,0,1-14.13,14.13Zm0,114.09h50a14.13,14.13,0,0,0,14.13-14.14V967.72a14.13,14.13,0,0,0-14.13-14.13h-50v60ZM1454.66,897.67h64.17v-60h-50a14.13,14.13,0,0,0-14.13,14.13v45.87Zm-1.07,182c0,53.39,13.65,67.23,64.17,67.23h66.47v-67.23h-66.47V951.14h-63.3v-57h-50a14.14,14.14,0,0,0-14.14,14.13V940a14.14,14.14,0,0,0,14.14,14.14h49.17v125.59Z" transform="translate(-186.16 1171.33)"/><path class="cls-14" d="M1206.21,1192.68h-31.38l5.28-21.6h84l-5.35,21.6h-30.39l-18.29,73.3h-22.44Z" transform="translate(-186.16 1171.33)"/><path class="cls-14" d="M1283,1265.7q-10.2-.63-15.44-4.57a24.07,24.07,0,0,1-7.92-10.7q-5.84-14.55,2.54-33.13,11.25-21.16,36.72-22.72h23.28q10.77.7,14.18,6.3a15.78,15.78,0,0,1,1.65,12.55l-.14.71-6.26,25.6h-41.79q-3.45-.49-3.55-5.13a16.49,16.49,0,0,1,2.92-9.36,11,11,0,0,1,8.79-5.2h15.69l1.48-5.91h-14.56q-8.44.27-13.65,4.71a19.17,19.17,0,0,0-6.83,10.13q-4.08,16.11,9.71,16.6h40.45l-4.92,20.4Z" transform="translate(-186.16 1171.33)"/><path class="cls-14" d="M1365.33,1265.7q-10.2-.63-15.44-4.57a24.13,24.13,0,0,1-7.91-10.7q-5.84-14.55,2.53-33.13,11.25-21.16,36.72-22.72H1422l-4.71,19.56h-34.4q-8.45.27-13.65,4.71a19.15,19.15,0,0,0-6.82,10.13q-4.79,16.39,9.71,16.6h37.56l-4.92,20.4Z" transform="translate(-186.16 1171.33)"/><path class="cls-14" d="M1437.3,1171h23.21l-5.34,23.22h19.91q9.63,0,15.19,7.31t3.45,17l-11.4,47.41H1459l11.46-47.41a3.94,3.94,0,0,0-.77-3.17,3.67,3.67,0,0,0-3-1.4h-16.46l-12.38,52h-23.21Z" transform="translate(-186.16 1171.33)"/><path class="cls-15" d="M1533.39,1266a19.21,19.21,0,0,1-13.64-5.35,19.93,19.93,0,0,1-6.33-13.5l-4.51-76.05H1533l2.39,66.9,30.75-66.9h26.66l-45.73,94.9Z" transform="translate(-186.16 1171.33)"/><path class="cls-15" d="M1581.09,1266l17.73-71.89H1622L1604.58,1266Zm23.57-95h23.14l-4.36,16.89h-23.15Z" transform="translate(-186.16 1171.33)"/><path class="cls-15" d="M1619.78,1246.42h34.4q8.44-.27,13.65-4.71a19.64,19.64,0,0,0,6.82-10.13q4.78-16.38-9.71-16.6h-14.35l-6.75,24.83H1621.4l17-68.8h22.44l-5.41,23.78,16.32.07q10.2.63,15.44,4.57a24.13,24.13,0,0,1,7.91,10.7q5.84,14.63-2.53,33.13-11.25,21.18-36.72,22.72h-40.8Z" transform="translate(-186.16 1171.33)"/><path class="cls-15" d="M1727.9,1265.7q-10.2-.63-15.44-4.57a24.13,24.13,0,0,1-7.91-10.7q-5.83-14.55,2.53-33.13,11.25-21.16,36.72-22.72h23.29q10.76.7,14.17,6.3a15.74,15.74,0,0,1,1.66,12.55l-.14.71-6.27,25.6h-41.78q-3.45-.49-3.55-5.13a16.55,16.55,0,0,1,2.91-9.36,11,11,0,0,1,8.8-5.2h15.69l1.47-5.91h-14.56q-8.45.27-13.65,4.71A19.15,19.15,0,0,0,1725,1229q-4.08,16.11,9.71,16.6h40.45l-4.93,20.4Z" transform="translate(-186.16 1171.33)"/><path class="cls-15" d="M1779.26,1266l4.78-19.41h36.65c3.89.32,6.24-.89,7-3.66q.13-4.5-6.76-4.08h-10.34q-10.7-.21-16.32-6.9t-3.52-18.5q6.2-20.4,31.24-18.92h39l-4.57,18.64h-37.92q-4.29-.21-4.92,3.1a2.94,2.94,0,0,0,1.83,3.44,13.86,13.86,0,0,0,5.83.64l9.22-.28q13,.42,17.23,7.38t2.26,18.5q-4.31,20.83-28.56,20Z" transform="translate(-186.16 1171.33)"/><path class="cls-16" d="M1211.71,1280.26l-9.72,18.6v11.27h-3.9v-11.27l-9.78-18.6h4.33l7.37,15.13,7.38-15.13Z" transform="translate(-186.16 1171.33)"/><path class="cls-16" d="M1238,1309a10.74,10.74,0,0,1-4.21-4.27,13.12,13.12,0,0,1-1.52-6.41,12.6,12.6,0,0,1,1.57-6.36,10.72,10.72,0,0,1,4.26-4.24,13.09,13.09,0,0,1,12.09,0,10.74,10.74,0,0,1,4.26,4.22,13.66,13.66,0,0,1,0,12.79A11.15,11.15,0,0,1,1250,1309a12.49,12.49,0,0,1-6.09,1.5A12,12,0,0,1,1238,1309Zm9.92-2.92a7.44,7.44,0,0,0,3-3,10.82,10.82,0,0,0,0-9.59,7.31,7.31,0,0,0-2.92-2.94,8.37,8.37,0,0,0-7.82,0,7,7,0,0,0-2.85,2.94,9.94,9.94,0,0,0-1.07,4.79,10.23,10.23,0,0,0,1,4.85,6.93,6.93,0,0,0,2.81,2.93,7.78,7.78,0,0,0,3.85,1A8.24,8.24,0,0,0,1247.89,1306.1Z" transform="translate(-186.16 1171.33)"/><path class="cls-16" d="M1299.83,1286.64v23.49h-3.9v-3.47a7.57,7.57,0,0,1-3.11,2.81,9.58,9.58,0,0,1-4.39,1,10.5,10.5,0,0,1-4.93-1.13,8.27,8.27,0,0,1-3.45-3.41,11.25,11.25,0,0,1-1.26-5.53v-13.76h3.86v13.25a7.48,7.48,0,0,0,1.75,5.33,6.25,6.25,0,0,0,4.8,1.87,6.4,6.4,0,0,0,4.93-1.93,8,8,0,0,0,1.8-5.61v-12.91Z" transform="translate(-186.16 1171.33)"/><path class="cls-16" d="M1331.14,1287.33a9.09,9.09,0,0,1,4.65-1.11v4h-1q-6.55,0-6.56,7.12v12.77h-3.9v-23.49h3.9v3.82A7.53,7.53,0,0,1,1331.14,1287.33Z" transform="translate(-186.16 1171.33)"/><path class="cls-16" d="M1405.86,1280.26v3.17h-8.14v26.7h-3.9v-26.7h-8.19v-3.17Z" transform="translate(-186.16 1171.33)"/><path class="cls-16" d="M1449.84,1299.84h-18.78a7.38,7.38,0,0,0,7.63,7.38,7.24,7.24,0,0,0,4.22-1.18,6.23,6.23,0,0,0,2.38-3.15h4.2a10.1,10.1,0,0,1-3.77,5.51,11.4,11.4,0,0,1-7,2.12,11.88,11.88,0,0,1-6-1.5,10.68,10.68,0,0,1-4.13-4.27,13.22,13.22,0,0,1-1.5-6.41,13.43,13.43,0,0,1,1.45-6.38,10.23,10.23,0,0,1,4.1-4.22,12.15,12.15,0,0,1,6.06-1.48,11.84,11.84,0,0,1,5.92,1.46,10.09,10.09,0,0,1,4,4,11.81,11.81,0,0,1,1.39,5.77C1450,1298.23,1449.92,1299,1449.84,1299.84Zm-4.89-7a6.47,6.47,0,0,0-2.68-2.45,8.46,8.46,0,0,0-3.75-.83,7.28,7.28,0,0,0-5,1.88,7.71,7.71,0,0,0-2.37,5.23h14.83A7.16,7.16,0,0,0,1445,1292.84Z" transform="translate(-186.16 1171.33)"/><path class="cls-16" d="M1473,1292a10.49,10.49,0,0,1,4-4.22,12.86,12.86,0,0,1,13.07.6,9.91,9.91,0,0,1,3.71,5.83h-4.2a6,6,0,0,0-2.34-3.39,7.17,7.17,0,0,0-4.3-1.24,6.93,6.93,0,0,0-5.41,2.29,9.41,9.41,0,0,0-2,6.49,9.55,9.55,0,0,0,2,6.56,6.89,6.89,0,0,0,5.41,2.32,7.28,7.28,0,0,0,4.28-1.2,6.13,6.13,0,0,0,2.36-3.43h4.2a10.34,10.34,0,0,1-3.77,5.76,11.28,11.28,0,0,1-7.07,2.17,11.65,11.65,0,0,1-5.94-1.5,10.44,10.44,0,0,1-4-4.25,13.5,13.5,0,0,1-1.46-6.43A13.33,13.33,0,0,1,1473,1292Z" transform="translate(-186.16 1171.33)"/><path class="cls-16" d="M1533.32,1287.35a8.15,8.15,0,0,1,3.37,3.41,11.59,11.59,0,0,1,1.22,5.53v13.84h-3.86v-13.29a7.53,7.53,0,0,0-1.75-5.37,6.29,6.29,0,0,0-4.81-1.87,6.4,6.4,0,0,0-4.9,1.93,7.86,7.86,0,0,0-1.82,5.61v13h-3.9v-31.71h3.9V1290a7.68,7.68,0,0,1,3.19-2.79,10.44,10.44,0,0,1,4.56-1A10.06,10.06,0,0,1,1533.32,1287.35Z" transform="translate(-186.16 1171.33)"/><path class="cls-16" d="M1608.9,1295.19q-2.55,2.47-7.77,2.47h-5.75v12.47h-3.9v-29.87h9.65q5.05,0,7.69,2.44a8.8,8.8,0,0,1,.08,12.49Zm-3-2.16a5.17,5.17,0,0,0,1.54-4c0-3.68-2.12-5.53-6.34-5.53h-5.75v11h5.75A7,7,0,0,0,1605.93,1293Z" transform="translate(-186.16 1171.33)"/><path class="cls-16" d="M1634.17,1292a10.59,10.59,0,0,1,4-4.22,11,11,0,0,1,5.68-1.5,10.36,10.36,0,0,1,5.35,1.33,8.78,8.78,0,0,1,3.39,3.34v-4.29h3.94v23.49h-3.94v-4.37a9.18,9.18,0,0,1-3.45,3.41,10.34,10.34,0,0,1-5.34,1.35,10.61,10.61,0,0,1-5.65-1.55,10.72,10.72,0,0,1-4-4.33,13.47,13.47,0,0,1-1.46-6.34A13.22,13.22,0,0,1,1634.17,1292Zm17.36,1.74a7.57,7.57,0,0,0-2.9-3,8.19,8.19,0,0,0-8,0,7.49,7.49,0,0,0-2.87,3,9.62,9.62,0,0,0-1.07,4.63,9.85,9.85,0,0,0,1.07,4.7,7.59,7.59,0,0,0,2.87,3,7.77,7.77,0,0,0,4,1,7.86,7.86,0,0,0,4-1,7.6,7.6,0,0,0,2.9-3,9.74,9.74,0,0,0,1.07-4.66A9.55,9.55,0,0,0,1651.53,1293.72Z" transform="translate(-186.16 1171.33)"/><path class="cls-16" d="M1687.85,1287.33a9.09,9.09,0,0,1,4.65-1.11v4h-1q-6.56,0-6.56,7.12v12.77H1681v-23.49h3.9v3.82A7.53,7.53,0,0,1,1687.85,1287.33Z" transform="translate(-186.16 1171.33)"/><path class="cls-16" d="M1719.63,1289.86v13.84a3.27,3.27,0,0,0,.73,2.42,3.59,3.59,0,0,0,2.53.71h2.87v3.3h-3.52a7,7,0,0,1-4.88-1.5q-1.63-1.5-1.63-4.93v-13.84h-3v-3.22h3v-5.91h3.9v5.91h6.13v3.22Z" transform="translate(-186.16 1171.33)"/><path class="cls-16" d="M1766.73,1288.81q2.65,2.6,2.66,7.48v13.84h-3.86v-13.29a7.54,7.54,0,0,0-1.76-5.37,6.25,6.25,0,0,0-4.8-1.87,6.4,6.4,0,0,0-4.9,1.93,7.86,7.86,0,0,0-1.83,5.61v13h-3.9v-23.49h3.9V1290a7.89,7.89,0,0,1,3.15-2.79,9.9,9.9,0,0,1,4.4-1A9.51,9.51,0,0,1,1766.73,1288.81Z" transform="translate(-186.16 1171.33)"/><path class="cls-16" d="M1815,1299.84h-18.77a7.37,7.37,0,0,0,7.62,7.38A7.22,7.22,0,0,0,1808,1306a6.23,6.23,0,0,0,2.38-3.15h4.2a10.1,10.1,0,0,1-3.77,5.51,11.4,11.4,0,0,1-7,2.12,11.88,11.88,0,0,1-6-1.5,10.68,10.68,0,0,1-4.13-4.27,14.56,14.56,0,0,1,0-12.79,10.15,10.15,0,0,1,4.09-4.22,12.15,12.15,0,0,1,6.06-1.48,11.84,11.84,0,0,1,5.92,1.46,10.09,10.09,0,0,1,4,4,11.82,11.82,0,0,1,1.4,5.77C1815.08,1298.23,1815,1299,1815,1299.84Zm-4.89-7a6.47,6.47,0,0,0-2.68-2.45,8.46,8.46,0,0,0-3.75-.83,7.23,7.23,0,0,0-5,1.88,7.67,7.67,0,0,0-2.38,5.23h14.83A7.16,7.16,0,0,0,1810.06,1292.84Z" transform="translate(-186.16 1171.33)"/><path class="cls-16" d="M1844.93,1287.33a9.09,9.09,0,0,1,4.65-1.11v4h-1q-6.55,0-6.56,7.12v12.77h-3.9v-23.49h3.9v3.82A7.47,7.47,0,0,1,1844.93,1287.33Z" transform="translate(-186.16 1171.33)"/><circle class="cls-17" cx="1882.78" cy="1783.33" r="482.88"/></g></svg>