<svg xmlns="http://www.w3.org/2000/svg" width="200.552" height="110.978" viewBox="0 0 200.552 110.978">
    <g id="LOGO" transform="translate(-108.229 -145.559)">
        <path id="Path_80" d="M.229-7.158H6.953v1.768H4.7V0H2.485V-5.391H.229Zm8.5,0h2.91L12.763-2.8l1.118-4.355h2.9V0H14.975V-5.459L13.573,0H11.938l-1.4-5.459V0H8.73Z" transform="translate(292 227)" fill="#e6e6e6"/>
        <path id="Path_79" d="M.229-7.158H6.953v1.768H4.7V0H2.485V-5.391H.229Zm8.5,0h2.91L12.763-2.8l1.118-4.355h2.9V0H14.975V-5.459L13.573,0H11.938l-1.4-5.459V0H8.73Z" transform="translate(108 227)" fill="#e6e6e6" opacity="0"/>
        <path id="Path_78" d="M3.609-31.5h9.754V0H3.609Zm20.321,0h9.088L44.877-14.072V-31.5h9.174V0H44.877L33.083-17.295V0H23.93Zm37.9,0H91.409v7.777H81.483V0H71.751V-23.719H61.825ZM99.462,0V-31.5h16.221a23.564,23.564,0,0,1,6.9.773,7.343,7.343,0,0,1,3.846,2.868,8.7,8.7,0,0,1,1.461,5.1,8.77,8.77,0,0,1-1.117,4.522,8.736,8.736,0,0,1-3.072,3.083,11.766,11.766,0,0,1-3.416,1.246,9.7,9.7,0,0,1,2.535,1.16,9.813,9.813,0,0,1,1.558,1.654,12.353,12.353,0,0,1,1.364,1.955L130.443,0h-11l-5.2-9.625a7.335,7.335,0,0,0-1.762-2.428,4.083,4.083,0,0,0-2.385-.73h-.859V0Zm9.775-18.734h4.1a14.664,14.664,0,0,0,2.578-.43,2.573,2.573,0,0,0,1.579-.988,2.911,2.911,0,0,0,.612-1.826,2.894,2.894,0,0,0-.967-2.342,5.849,5.849,0,0,0-3.631-.816h-4.275ZM135.1-15.727q0-7.713,4.3-12.01t11.967-4.3q7.863,0,12.117,4.222t4.254,11.827a19.39,19.39,0,0,1-1.858,9.056,13.249,13.249,0,0,1-5.371,5.5A17.73,17.73,0,0,1,151.752.537a20.146,20.146,0,0,1-8.819-1.7,13.279,13.279,0,0,1-5.661-5.371A17.834,17.834,0,0,1,135.1-15.727Zm9.732.043q0,4.77,1.772,6.854a6,6,0,0,0,4.823,2.084,6,6,0,0,0,4.855-2.041Q158-10.828,158-16.113q0-4.447-1.794-6.5a6.133,6.133,0,0,0-4.866-2.052,5.912,5.912,0,0,0-4.727,2.084Q144.834-20.5,144.834-15.684Z" transform="translate(122 256)" fill="#e6e6e6"/>
        <g id="LOGO-2" transform="translate(-16.089 -30)">
            <path id="path758" d="M3.453.991H35.49V6.1H-14.147l17.6-10.16Z" transform="translate(212.417 192.366)" fill="#e6e6e6"/>
            <path id="path762" d="M6.286,1H-25.751V-4.109H23.886L6.286,6.052Z" transform="translate(224.021 207.072)" fill="#e6e6e6"/>
            <path id="path766" d="M2.314,2.947a11.7,11.7,0,0,0,23.4.148,11.7,11.7,0,1,0-23.4-.148m3.978,12.98A14.917,14.917,0,0,1-.969,4.36,14.426,14.426,0,0,1,2.883-7.134a15.016,15.016,0,0,1,21.871-.418A14.526,14.526,0,0,1,28.929,4.9a14.869,14.869,0,0,1-7.178,11.013c.572.232,1.131.435,1.67.68A23.287,23.287,0,0,1,36.9,32.636a28.273,28.273,0,0,1,.584,3.707,1.669,1.669,0,0,1-1.548,1.891A1.7,1.7,0,0,1,34.118,36.6c-.038-.469-.09-.937-.161-1.4a19.721,19.721,0,0,0-5.6-11.119A19.244,19.244,0,0,0,17.528,18.4,19.757,19.757,0,0,0-1.059,24.863a19.225,19.225,0,0,0-4.8,9.855c-.116.645-.174,1.3-.239,1.952a1.709,1.709,0,0,1-1.833,1.564,1.683,1.683,0,0,1-1.546-1.84,23.309,23.309,0,0,1,8.3-16.2,23.008,23.008,0,0,1,7.266-4.192l.2-.08" transform="translate(150.568 187.632)" fill="#e6e6e6"/>
            <path id="path770" d="M2.314,2.947a11.7,11.7,0,0,0,23.4.148,11.7,11.7,0,1,0-23.4-.148m3.978,12.98A14.913,14.913,0,0,1-.969,4.36,14.426,14.426,0,0,1,2.883-7.134a15.016,15.016,0,0,1,21.871-.418A14.536,14.536,0,0,1,28.929,4.9,14.871,14.871,0,0,1,21.75,15.915c.574.232,1.133.435,1.672.68A23.287,23.287,0,0,1,36.9,32.636a28.273,28.273,0,0,1,.584,3.707,1.669,1.669,0,0,1-1.548,1.891A1.7,1.7,0,0,1,34.116,36.6c-.038-.469-.088-.937-.159-1.4a19.721,19.721,0,0,0-5.6-11.119A19.244,19.244,0,0,0,17.528,18.4,19.757,19.757,0,0,0-1.059,24.863a19.212,19.212,0,0,0-4.8,9.855c-.116.645-.174,1.3-.239,1.952a1.709,1.709,0,0,1-1.833,1.564,1.683,1.683,0,0,1-1.546-1.84,23.3,23.3,0,0,1,8.3-16.2,23.008,23.008,0,0,1,7.266-4.192l.2-.08" transform="translate(267.594 187.632)" fill="#e6e6e6"/>
        </g>
    </g>
</svg>
